<?xml version="1.0" standalone="no"?>
<!DOCTYPE svg PUBLIC "-//W3C//DTD SVG 20010904//EN"
 "http://www.w3.org/TR/2001/REC-SVG-20010904/DTD/svg10.dtd">
<svg version="1.0" xmlns="http://www.w3.org/2000/svg"
 width="321.000000pt" height="259.000000pt" viewBox="0 0 321.000000 259.000000"
 preserveAspectRatio="xMidYMid meet">

<g transform="translate(0.000000,259.000000) scale(0.100000,-0.100000)"
fill="#000000" stroke="none">
<path d="M435 2382 c-35 -4 -109 -51 -113 -73 -1 -8 6 -25 17 -38 11 -12 17
-29 14 -37 -4 -11 4 -14 33 -13 22 0 33 3 27 6 -7 2 -13 11 -13 19 0 10 13 14
46 14 37 0 45 -3 40 -15 -3 -8 -1 -15 4 -15 6 0 10 7 10 15 0 8 8 15 18 16 15
0 14 2 -3 10 -14 7 -6 8 29 4 27 -3 68 -5 92 -5 34 0 44 -4 49 -21 8 -25 30
-20 30 7 0 17 8 19 80 21 137 2 295 -9 294 -21 -3 -25 2 -36 16 -36 8 0 15 5
15 10 0 22 41 50 75 50 27 0 33 3 28 16 -5 14 31 15 354 10 197 -2 371 -8 386
-11 34 -9 35 -23 2 -31 -26 -6 -257 2 -339 13 -44 5 -49 4 -42 -12 3 -10 1
-24 -5 -31 -9 -12 -2 -14 42 -12 36 1 43 3 22 5 -36 5 -44 18 -15 27 19 6 180
1 187 -5 2 -3 0 -11 -4 -18 -6 -8 -32 -14 -70 -16 -66 -3 -98 -15 -40 -15 80
0 321 -22 401 -36 47 -9 95 -14 105 -12 18 4 -32 16 -152 36 -33 5 -71 12 -84
16 -13 3 -42 6 -65 8 -46 2 -79 24 -51 34 8 4 59 4 112 2 71 -3 91 -1 78 6
-10 6 -33 23 -50 39 l-33 27 -376 0 -376 0 -50 35 c-46 32 -90 46 -90 27 0 -4
12 -15 28 -24 15 -9 36 -26 46 -37 19 -21 19 -21 -32 -21 l-52 0 0 45 c0 33
-4 45 -15 45 -11 0 -15 -12 -15 -45 l0 -45 -95 0 -95 0 0 39 0 40 48 4 c26 2
-59 4 -188 3 -129 0 -248 -2 -265 -4z m375 -42 l0 -40 -74 0 c-72 0 -74 0 -79
28 -8 42 8 52 84 52 l69 0 0 -40z m-176 14 c14 -37 -2 -51 -64 -58 -33 -4 -65
-4 -70 -1 -11 7 -14 58 -3 68 3 4 34 7 69 7 48 0 63 -4 68 -16z m-164 -28 c0
-33 -1 -34 -46 -38 -26 -2 -54 2 -63 9 -14 10 -14 14 8 37 18 19 35 26 63 26
37 0 38 -1 38 -34z"/>
<path d="M1343 2273 c36 -9 9 -28 -49 -34 l-59 -6 80 -1 c61 -2 76 1 67 10
-17 17 -15 26 6 31 9 3 -1 5 -23 5 -22 0 -32 -2 -22 -5z"/>
<path d="M1361 2216 c8 -8 146 -12 165 -5 11 4 -21 8 -75 8 -52 1 -92 -1 -90
-3z"/>
<path d="M768 2163 c17 -2 47 -2 65 0 17 2 3 4 -33 4 -36 0 -50 -2 -32 -4z"/>
<path d="M1018 2153 c6 -2 18 -2 25 0 6 3 1 5 -13 5 -14 0 -19 -2 -12 -5z"/>
<path d="M1370 2150 c-90 -8 -108 -15 -116 -47 -10 -39 63 -444 84 -465 24
-24 675 -51 1109 -46 l263 3 -14 27 c-15 28 -10 38 27 51 19 7 22 33 6 74 -6
15 -9 29 -7 31 2 2 -5 8 -15 14 -11 6 -42 7 -76 3 l-57 -6 -44 56 c-25 31 -67
84 -94 118 -27 34 -57 75 -67 91 -10 16 -24 31 -31 33 -164 39 -273 50 -608
63 -140 5 -262 9 -270 8 -8 -1 -49 -4 -90 -8z m527 -162 c-3 -8 -6 -5 -6 6 -1
11 2 17 5 13 3 -3 4 -12 1 -19z m627 -155 c69 -92 126 -170 126 -174 0 -4 -9
-10 -19 -14 -36 -11 -90 37 -191 171 -114 150 -121 164 -91 164 12 0 21 5 21
10 0 34 43 -10 154 -157z m-1207 125 c-3 -8 -6 -5 -6 6 -1 11 2 17 5 13 3 -3
4 -12 1 -19z m10 -60 c-3 -8 -6 -5 -6 6 -1 11 2 17 5 13 3 -3 4 -12 1 -19z
m63 -214 c12 -16 11 -16 -7 1 -13 12 -27 48 -37 92 -23 104 -18 113 8 12 12
-47 28 -95 36 -105z"/>
<path d="M1128 2143 c7 -3 16 -2 19 1 4 3 -2 6 -13 5 -11 0 -14 -3 -6 -6z"/>
<path d="M272 2038 c-51 -133 -75 -219 -65 -229 11 -11 233 -61 248 -56 6 3
17 31 24 63 8 33 33 119 56 192 l43 132 -133 0 -134 0 -39 -102z"/>
<path d="M590 2082 c-37 -98 -91 -296 -88 -321 3 -24 11 -27 153 -57 109 -24
152 -29 157 -21 4 6 14 45 24 87 9 41 34 132 55 202 22 70 39 132 39 137 0 14
-41 19 -192 25 l-127 6 -21 -58z"/>
<path d="M990 2094 c-28 -73 -100 -383 -100 -429 0 -7 18 -15 42 -19 23 -4 83
-19 133 -33 49 -14 109 -27 132 -28 l41 -3 12 66 c10 59 8 83 -14 202 -13 74
-28 156 -31 182 -4 26 -12 52 -19 57 -9 8 -142 31 -177 31 -5 0 -14 -12 -19
-26z m127 -260 c-3 -3 -12 -4 -19 -1 -8 3 -5 6 6 6 11 1 17 -2 13 -5z m20
-120 c-3 -3 -12 -4 -19 -1 -8 3 -5 6 6 6 11 1 17 -2 13 -5z"/>
<path d="M192 1632 c4 -24 226 -101 238 -82 10 15 2 42 -10 35 -5 -3 -44 8
-87 23 -43 16 -93 32 -111 35 -28 6 -33 4 -30 -11z"/>
<path d="M761 1583 c-15 -78 -15 -91 3 -73 15 16 38 109 30 122 -12 19 -22 4
-33 -49z"/>
<path d="M840 1618 c-1 -7 -7 -39 -14 -70 -11 -46 -12 -58 -1 -58 11 0 35 87
35 127 0 17 -20 17 -20 1z"/>
<path d="M1857 1563 c-4 -6 0 -19 8 -29 13 -18 34 -19 412 -22 l398 -3 -25 25
-25 24 -381 8 c-248 4 -383 3 -387 -3z m126 -30 c-7 -2 -19 -2 -25 0 -7 3 -2
5 12 5 14 0 19 -2 13 -5z m224 0 c-20 -2 -52 -2 -70 0 -17 2 0 4 38 4 39 0 53
-2 32 -4z m130 1 c-3 -3 -12 -4 -19 -1 -8 3 -5 6 6 6 11 1 17 -2 13 -5z m70 0
c-3 -3 -12 -4 -19 -1 -8 3 -5 6 6 6 11 1 17 -2 13 -5z"/>
<path d="M86 1372 c-10 -76 8 -149 46 -186 l32 -32 1 -119 c0 -105 3 -125 23
-162 l22 -43 79 0 c43 0 97 7 120 15 45 15 64 12 116 -24 17 -12 106 -55 199
-97 200 -91 290 -139 350 -188 40 -33 44 -42 51 -94 13 -108 77 -194 153 -208
49 -10 180 10 235 35 40 18 48 19 90 6 78 -23 173 -27 405 -16 349 17 620 49
687 81 22 10 66 30 98 45 43 20 61 35 71 59 9 21 25 37 47 46 53 21 145 87
169 119 32 46 60 138 60 200 0 50 -3 59 -30 83 -17 14 -30 22 -30 17 0 -8 -75
-32 -137 -43 -33 -5 -33 -5 -33 37 l0 43 -107 -9 c-60 -4 -252 -13 -428 -20
l-320 -12 -5 -40 -5 -40 -220 2 c-208 1 -226 3 -325 30 l-105 29 -25 47 c-46
84 -92 121 -167 133 -91 14 -140 -94 -127 -282 7 -96 7 -96 -14 -83 -11 7 -18
17 -15 23 3 5 1 6 -5 2 -13 -8 -214 84 -246 112 -18 16 -19 16 -13 0 4 -10 5
-18 3 -18 -13 0 -343 185 -354 198 -7 10 -10 11 -7 4 5 -10 -1 -9 -24 2 -17 9
-31 19 -31 22 0 2 10 0 21 -7 12 -6 19 -7 16 -2 -3 5 -24 18 -46 28 -47 21
-55 39 -71 165 -12 88 -30 142 -57 172 -20 22 -49 23 -61 2 -8 -15 -12 -15
-40 0 -17 9 -33 16 -35 16 -3 0 -7 -22 -11 -48z m1314 -590 c0 -13 -4 -20 -10
-17 -5 3 -10 21 -10 38 0 24 3 28 10 17 5 -8 10 -25 10 -38z m408 -29 c-10 -2
-28 -2 -40 0 -13 2 -5 4 17 4 22 1 32 -1 23 -4z m997 -50 c-4 -32 -8 -59 -9
-60 -1 -2 -94 -10 -206 -20 -155 -13 -205 -14 -208 -5 -2 7 -12 12 -23 12 -10
0 -19 5 -19 10 0 6 9 10 20 10 11 0 20 7 20 15 0 8 -7 15 -15 15 -8 0 -15 7
-15 15 0 8 9 15 20 15 11 0 20 5 20 10 0 6 30 10 68 11 52 1 232 15 341 27 11
2 12 -10 6 -55z"/>
<path d="M2705 720 c-3 -6 1 -7 9 -4 18 7 21 14 7 14 -6 0 -13 -4 -16 -10z"/>
<path d="M2741 700 c0 -19 3 -29 6 -22 7 17 21 15 26 -5 3 -10 5 -2 6 17 0 23
-2 30 -8 21 -7 -11 -11 -10 -20 5 -9 16 -10 14 -10 -16z"/>
<path d="M2576 705 c4 -8 8 -15 10 -15 2 0 4 7 4 15 0 8 -4 15 -10 15 -5 0 -7
-7 -4 -15z"/>
<path d="M2607 713 c-13 -12 -7 -33 8 -33 8 0 15 9 15 20 0 20 -11 26 -23 13z"/>
<path d="M2643 704 c-3 -9 0 -20 8 -25 12 -8 12 -11 -1 -20 -13 -9 -13 -10 0
-6 17 4 27 67 10 67 -6 0 -13 -7 -17 -16z"/>
<path d="M2416 683 c4 -19 3 -24 -4 -15 -7 11 -11 8 -15 -9 -4 -13 -4 -25 -2
-28 3 -2 5 1 5 7 0 7 7 12 15 12 10 0 15 10 15 30 0 17 -5 30 -10 30 -6 0 -8
-12 -4 -27z"/>
<path d="M2451 693 c-1 -14 5 -23 13 -23 16 0 41 28 33 37 -4 3 -9 -2 -13 -11
-8 -21 -21 -21 -27 2 -4 13 -5 11 -6 -5z"/>
<path d="M2537 703 c-2 -5 -1 -19 4 -33 7 -23 7 -23 8 8 1 31 -3 40 -12 25z"/>
<path d="M2690 686 c0 -8 4 -17 9 -20 5 -4 7 3 4 14 -6 23 -13 26 -13 6z"/>
<path d="M2566 665 c-9 -26 -7 -32 5 -12 6 10 9 21 6 23 -2 3 -7 -2 -11 -11z"/>
<path d="M2606 653 c-6 -14 -5 -15 5 -6 7 7 10 15 7 18 -3 3 -9 -2 -12 -12z"/>
<path d="M2958 1231 c-49 -7 -66 -16 -54 -28 4 -4 16 -2 27 5 27 17 84 5 115
-23 17 -16 24 -33 24 -61 0 -29 -3 -35 -10 -24 -5 8 -10 10 -10 4 0 -7 -15
-11 -40 -10 -46 2 -51 -5 -15 -24 20 -11 27 -11 40 0 10 8 15 9 15 1 0 -6 7
-11 15 -11 13 0 15 14 13 88 l-3 87 -35 1 c-19 1 -56 -1 -82 -5z m94 -33 c-8
-8 -9 -4 -5 13 4 13 8 18 11 10 2 -7 -1 -18 -6 -23z"/>
<path d="M1572 1221 c-6 -4 -14 -45 -18 -92 -6 -77 -5 -87 11 -93 22 -8 175
-18 158 -10 -15 7 -17 36 -4 50 5 5 11 24 13 43 4 40 34 52 47 19 7 -19 8 -20
14 -4 8 20 0 39 -13 31 -5 -3 -12 -1 -15 5 -5 8 -11 7 -21 -1 -12 -10 -17 -8
-28 7 -8 10 -13 20 -12 21 2 2 268 -15 293 -19 7 -1 12 -4 11 -7 -2 -19 3 -31
11 -27 5 3 11 -10 13 -30 2 -19 0 -38 -4 -40 -5 -3 -5 -10 -2 -16 4 -6 2 -8
-4 -4 -6 3 -9 19 -6 34 l4 27 -14 -24 c-11 -20 -11 -27 -1 -38 8 -7 19 -13 25
-13 7 0 9 -7 6 -17 -6 -15 18 -16 321 -9 303 7 540 19 547 27 2 2 1 35 -2 73
l-4 68 -37 -6 c-20 -3 -213 -9 -428 -13 -365 -6 -393 -5 -393 11 0 29 -44 35
-238 37 -103 1 -194 6 -203 10 -8 4 -20 4 -27 0z m118 -30 c0 -13 -29 -35 -37
-28 -3 4 2 10 11 13 14 5 15 9 4 15 -10 7 -9 9 5 9 9 0 17 -4 17 -9z m-59 -78
c13 -15 12 -16 -8 -11 -26 7 -33 -16 -8 -26 26 -10 16 -23 -20 -24 -34 -1 -34
-1 -22 26 9 21 33 49 43 52 1 0 8 -8 15 -17z m59 3 c0 -15 -14 -35 -21 -30
-15 9 -10 34 6 34 8 0 15 -2 15 -4z m7 -82 c-3 -3 -12 -4 -19 -1 -8 3 -5 6 6
6 11 1 17 -2 13 -5z"/>
<path d="M3003 1137 c12 -12 25 -18 29 -13 11 16 -4 36 -28 36 l-23 0 22 -23z"/>
<path d="M1840 1130 c0 -9 12 -13 76 -24 18 -3 43 -8 58 -12 21 -5 26 -3 26
14 0 15 -9 21 -46 26 -68 9 -114 7 -114 -4z"/>
<path d="M1810 1119 c0 -5 5 -7 10 -4 6 3 10 8 10 11 0 2 -4 4 -10 4 -5 0 -10
-5 -10 -11z"/>
<path d="M1815 1070 c3 -5 13 -10 21 -10 8 0 12 5 9 10 -3 6 -13 10 -21 10 -8
0 -12 -4 -9 -10z"/>
<path d="M1750 1060 c0 -5 5 -10 11 -10 5 0 7 5 4 10 -3 6 -8 10 -11 10 -2 0
-4 -4 -4 -10z"/>
<path d="M1720 1050 c0 -5 5 -10 11 -10 5 0 7 5 4 10 -3 6 -8 10 -11 10 -2 0
-4 -4 -4 -10z"/>
<path d="M1918 1043 c12 -2 32 -2 45 0 12 2 2 4 -23 4 -25 0 -35 -2 -22 -4z"/>
<path d="M1855 1030 c-3 -6 1 -7 9 -4 18 7 21 14 7 14 -6 0 -13 -4 -16 -10z"/>
<path d="M1945 1031 l-50 -7 53 -4 c37 -4 52 -2 52 8 0 6 -1 11 -2 10 -2 0
-25 -4 -53 -7z"/>
<path d="M1455 1010 c27 -12 43 -12 25 0 -8 5 -22 9 -30 9 -10 0 -8 -3 5 -9z"/>
<path d="M1435 995 c17 -8 37 -14 45 -14 8 0 -1 7 -20 14 -46 18 -64 17 -25 0z"/>
</g>
</svg>
